<?xml version="1.0" encoding="utf-8"?>
<!-- Generator: $$$/GeneralStr/196=Adobe Illustrator 27.6.0, SVG Export Plug-In . SVG Version: 6.00 Build 0)  -->
<svg version="1.1" id="圖層_1" xmlns="http://www.w3.org/2000/svg" xmlns:xlink="http://www.w3.org/1999/xlink" x="0px" y="0px"
	 viewBox="0 0 48 48" style="enable-background:new 0 0 48 48;" xml:space="preserve">
<style type="text/css">
	.st0{fill:#FFFCCE;}
	.st1{fill:#FFAA04;}
	.st2{enable-background:new    ;}
</style>
<g id="Group_2210" transform="translate(-16037 262.776)">
	<g id="Polygon_122" transform="translate(16037 -262.776)">
		<path class="st0" d="M43.7,44H4.3c-1.2,0-2.2-0.6-2.8-1.6c-0.6-1-0.6-2.2,0-3.2L21.2,4.5c0.6-1,1.6-1.6,2.8-1.6s2.2,0.6,2.8,1.6
			l19.7,34.6c0.6,1,0.6,2.2,0,3.2C45.9,43.4,44.8,44,43.7,44z"/>
		<path class="st1" d="M24,4c-0.4,0-1.3,0.1-1.9,1.1L2.5,39.7c-0.6,1-0.2,1.8,0,2.2c0.2,0.3,0.7,1.1,1.9,1.1h39.3
			c1.1,0,1.7-0.8,1.9-1.1c0.2-0.3,0.6-1.2,0-2.2L25.9,5.1C25.3,4.1,24.4,4,24,4 M24,1.8c1.5,0,2.9,0.7,3.8,2.2l19.7,34.6
			c1.6,2.9-0.4,6.5-3.8,6.5H4.3c-3.3,0-5.4-3.6-3.8-6.5L20.2,4C21.1,2.5,22.5,1.8,24,1.8z"/>
	</g>
	<g class="st2">
		<path class="st1" d="M16060.5-230.7c-0.2-0.2-0.3-0.5-0.4-0.8l-1-11l0-0.3c0-0.6,0.2-1,0.6-1.4s0.9-0.5,1.5-0.5
			c0.6,0,1.1,0.2,1.5,0.5s0.6,0.8,0.6,1.4l0,0.3l-1,10.9c0,0.4-0.2,0.6-0.4,0.8c-0.2,0.2-0.4,0.3-0.7,0.3
			C16061-230.4,16060.7-230.5,16060.5-230.7z M16059.7-225.1c-0.4-0.4-0.6-0.9-0.6-1.5c0-0.6,0.2-1.1,0.6-1.5
			c0.4-0.4,0.9-0.6,1.5-0.6s1.1,0.2,1.5,0.6c0.4,0.4,0.6,0.9,0.6,1.5c0,0.6-0.2,1.1-0.6,1.5c-0.4,0.4-0.9,0.6-1.5,0.6
			S16060.1-224.7,16059.7-225.1z"/>
	</g>
</g>
</svg>
