<?xml version="1.0" encoding="utf-8"?>
<svg version="1.1" id="Capa_1" xmlns="http://www.w3.org/2000/svg" xmlns:xlink="http://www.w3.org/1999/xlink" x="0px" y="0px"
	 viewBox="0 0 512 512" style="enable-background:new 0 0 512 512;" xml:space="preserve">
<style type="text/css">
	.st0{fill:#333333;}
</style>
<path id="Path_164" class="st0" d="M396.5,122.3h-15.6V91.1c0-8.6-7-15.6-15.6-15.6h-15.6c-8.6,0-15.6,7-15.6,15.6v31.2H178V91.1
	c0-8.6-7-15.6-15.6-15.6h-15.6c-8.6,0-15.6,7-15.6,15.6v31.2h-15.6c-25.8,0-46.8,21-46.8,46.8v234.1c0,25.8,21,46.8,46.8,46.8h280.9
	c25.8,0,46.8-21,46.8-46.8V169.1C443.3,143.3,422.3,122.4,396.5,122.3z M412.1,403.3c0,8.6-7,15.6-15.6,15.6H115.5
	c-8.6,0-15.6-7-15.6-15.6V232.2h312.2V403.3z"/>
</svg>
