<?xml version="1.0" encoding="utf-8"?>
<svg xmlns="http://www.w3.org/2000/svg" id="G_Pay_Acceptance_Mark" style="enable-background:new 0 0 1094 742;" version="1.1" viewBox="0 0 1094 742" x="0px" y="0px">
<style type="text/css">
	.st0{fill:#FFFFFF;}
	.st1{fill:#3C4043;}
	.st2{fill:#4285F4;}
	.st3{fill:#34A853;}
	.st4{fill:#FABB05;}
	.st5{fill:#E94235;}
</style>
<path class="st0" d="M798.2,84.2h-503C138,84.2,9.4,212.8,9.4,370l0,0c0,157.2,128.6,285.8,285.8,285.8h503&#xD;&#xA;	c157.2,0,285.8-128.6,285.8-285.8l0,0C1084,212.8,955.4,84.2,798.2,84.2z" id="Base_1_"/>
<path class="st1" d="M798.2,107.4c35.3,0,69.6,7,101.9,20.7c31.3,13.3,59.3,32.3,83.6,56.4&#xD;&#xA;	c24.1,24.1,43.2,52.3,56.4,83.6c13.7,32.3,20.7,66.6,20.7,101.9s-7,69.6-20.7,101.9c-13.3,31.3-32.3,59.3-56.4,83.6&#xD;&#xA;	c-24.1,24.1-52.3,43.2-83.6,56.4c-32.3,13.7-66.6,20.7-101.9,20.7h-503c-35.3,0-69.6-7-101.9-20.7c-31.3-13.3-59.3-32.3-83.6-56.4&#xD;&#xA;	c-24.1-24.1-43.2-52.3-56.4-83.6C39.6,439.6,32.5,405.3,32.5,370s7-69.6,20.7-101.9c13.3-31.3,32.3-59.3,56.4-83.6&#xD;&#xA;	c24.1-24.1,52.3-43.2,83.6-56.4c32.3-13.7,66.6-20.7,101.9-20.7L798.2,107.4 M798.2,84.2h-503C138,84.2,9.4,212.8,9.4,370l0,0&#xD;&#xA;	c0,157.2,128.6,285.8,285.8,285.8h503c157.2,0,285.8-128.6,285.8-285.8l0,0C1084,212.8,955.4,84.2,798.2,84.2L798.2,84.2z" id="Outline"/>
<g id="G_Pay_Lockup_1_">
	<g id="Pay_Typeface_3_">
		<path class="st1" d="M521.8,390.3v86.5h-27.4V263.3h72.7c18.4,0,34.2,6.1,47,18.4c13.1,12.3,19.7,27.3,19.7,45&#xD;&#xA;			c0,18.1-6.6,33.2-19.7,45.3c-12.7,12.1-28.4,18.1-47,18.1h-45.3V390.3z M521.8,289.5V364h45.9c10.9,0,20-3.7,27.2-11&#xD;&#xA;			c7.3-7.3,11-16.1,11-26.2c0-9.9-3.7-18.6-11-25.9c-7.1-7.6-16.1-11.3-27.2-11.3h-45.9V289.5z" id="Letter_p_3_"/>
		<path class="st1" d="M705.6,325.8c20.3,0,36.3,5.4,48,16.3c11.7,10.9,17.6,25.7,17.6,44.6v90H745v-20.3h-1.1&#xD;&#xA;			c-11.3,16.7-26.4,25-45.3,25c-16.1,0-29.6-4.7-40.4-14.3s-16.3-21.4-16.3-35.7c0-15.1,5.7-27.2,17.1-36&#xD;&#xA;			c11.4-9,26.7-13.4,45.7-13.4c16.3,0,29.7,3,40.2,9v-6.3c0-9.6-3.7-17.6-11.3-24.3c-7.6-6.7-16.4-10-26.6-10&#xD;&#xA;			c-15.3,0-27.4,6.4-36.3,19.4l-24.1-15.1C659.9,335.4,679.6,325.8,705.6,325.8z M670.2,431.9c0,7.1,3,13.1,9.1,17.9&#xD;&#xA;			c6,4.7,13.1,7.1,21.3,7.1c11.6,0,21.9-4.3,30.9-12.9c9-8.6,13.6-18.6,13.6-30.2c-8.6-6.7-20.4-10.1-35.7-10.1&#xD;&#xA;			c-11.1,0-20.4,2.7-27.9,8C673.9,417.3,670.2,424,670.2,431.9z" id="Letter_a_3_"/>
		<path class="st1" d="M920.4,330.6l-91.5,210.3h-28.3l34-73.6l-60.3-136.8h29.9l43.4,104.9h0.6l42.3-104.9H920.4z" id="Letter_y_3_"/>
	</g>
	<g id="G_Mark_1_">
		<path class="st2" d="M412.7,372.9c0-8.9-0.8-17.5-2.3-25.7h-115v47.2l66.2,0c-2.7,15.7-11.3,29.1-24.6,38v30.6h39.4&#xD;&#xA;			C399.5,441.6,412.7,410.1,412.7,372.9z" id="Blue_500"/>
		<path class="st3" d="M337.1,432.3c-11,7.4-25.1,11.7-41.6,11.7c-31.9,0-59-21.5-68.7-50.5H186V425&#xD;&#xA;			c20.1,40,61.6,67.4,109.4,67.4c33.1,0,60.8-10.9,81.1-29.6L337.1,432.3z" id="Green_500_1_"/>
		<path class="st4" d="M222.9,370.1c0-8.1,1.4-16,3.8-23.4v-31.6H186c-8.3,16.5-13,35.2-13,55&#xD;&#xA;			c0,19.8,4.7,38.4,13,55l40.7-31.6C224.2,386.1,222.9,378.2,222.9,370.1z" id="Yellow_500_1_"/>
		<path class="st5" d="M295.4,296.1c18,0,34.2,6.2,47,18.4l34.9-34.9c-21.2-19.8-48.9-31.9-81.9-31.9&#xD;&#xA;			c-47.8,0-89.3,27.4-109.4,67.4l40.7,31.6C236.4,317.6,263.5,296.1,295.4,296.1z" id="Red_500"/>
	</g>
</g>
</svg>